<svg xmlns="http://www.w3.org/2000/svg" version="1.1" xmlns:xlink="http://www.w3.org/1999/xlink" xmlns:svgjs="http://svgjs.com/svgjs" width="1414" height="560" preserveAspectRatio="none" viewBox="0 0 1414 560"><g mask="url(&quot;#SvgjsMask1561&quot;)" fill="none"><rect width="1414" height="560" x="0" y="0" fill="rgba(0, 0, 0, 1)"></rect><path d="M 0,29 C 15.8,58.6 47.4,156.6 79,177 C 110.6,197.4 126.4,114.4 158,131 C 189.6,147.6 205.4,278.4 237,260 C 268.6,241.6 284.4,37.8 316,39 C 347.6,40.2 363.4,258.4 395,266 C 426.6,273.6 442.4,93.6 474,77 C 505.6,60.4 521.4,188.8 553,183 C 584.6,177.2 600.4,37.4 632,48 C 663.6,58.6 679.4,231.6 711,236 C 742.6,240.4 758.4,73.2 790,70 C 821.6,66.8 837.4,209.2 869,220 C 900.6,230.8 916.4,122.8 948,124 C 979.6,125.2 995.4,240 1027,226 C 1058.6,212 1074.4,57.2 1106,54 C 1137.6,50.8 1153.4,206.6 1185,210 C 1216.6,213.4 1232.4,74.8 1264,71 C 1295.6,67.2 1313,197 1343,191 C 1373,185 1399.8,71 1414,41L1414 560L0 560z" fill="rgba(0, 0, 0, 1)"></path><path d="M 0,308 C 70.8,349.2 212.4,498 354,514 C 495.6,530 566.4,399.8 708,388 C 849.6,376.2 920.8,469 1062,455 C 1203.2,441 1343.6,345.4 1414,318L1414 560L0 560z" fill="rgba(255, 255, 255, 1)"></path></g><defs><mask id="SvgjsMask1561"><rect width="1414" height="560" fill="#ffffff"></rect></mask></defs></svg>