<svg xmlns="http://www.w3.org/2000/svg" version="1.1" xmlns:xlink="http://www.w3.org/1999/xlink" xmlns:svgjs="http://svgjs.com/svgjs" width="1414" height="560" preserveAspectRatio="none" viewBox="0 0 1414 560"><g mask="url(&quot;#SvgjsMask1609&quot;)" fill="none"><rect width="1414" height="560" x="0" y="0" fill="rgba(255, 255, 255, 1)"></rect><path d="M 0,24 C 47.2,48.2 141.6,145.4 236,145 C 330.4,144.6 377.6,14 472,22 C 566.4,30 613.6,175 708,185 C 802.4,195 849.6,76.2 944,72 C 1038.4,67.8 1086,170.4 1180,164 C 1274,157.6 1367.2,64.8 1414,40L1414 560L0 560z" fill="rgba(255, 243, 247, 1)"></path><path d="M 0,302 C 94.4,337 283.2,467.4 472,477 C 660.8,486.6 755.6,353 944,350 C 1132.4,347 1320,439.6 1414,462L1414 560L0 560z" fill="rgba(255, 255, 255, 1)"></path></g><defs><mask id="SvgjsMask1609"><rect width="1414" height="560" fill="#ffffff"></rect></mask></defs></svg>